<?xml version="1.0" standalone="no"?>
<!DOCTYPE svg PUBLIC "-//W3C//DTD SVG 20010904//EN"
 "http://www.w3.org/TR/2001/REC-SVG-20010904/DTD/svg10.dtd">
<svg version="1.0" xmlns="http://www.w3.org/2000/svg"
 width="1000.000000pt" height="1000.000000pt" viewBox="0 0 1000.000000 1000.000000"
 preserveAspectRatio="xMidYMid meet">
<metadata>
Created by potrace 1.14, written by Peter Selinger 2001-2017
</metadata>
<g transform="translate(0.000000,1000.000000) scale(0.100000,-0.100000)"
fill="#000000" stroke="none">
<path d="M3683 9050 c2 -22 -2 -40 -8 -40 -7 0 -7 -3 0 -8 14 -10 17 -32 4
-32 -8 0 -8 -4 0 -14 8 -10 9 -16 1 -21 -7 -4 -7 -12 0 -26 8 -13 7 -19 0 -19
-8 0 -8 -6 0 -20 8 -14 8 -20 0 -20 -6 0 -8 -5 -3 -12 12 -20 12 -38 1 -38 -7
0 -6 -5 1 -14 8 -10 9 -16 1 -21 -7 -4 -7 -12 0 -26 8 -14 7 -19 -2 -19 -8 0
-9 -3 -3 -8 12 -8 13 -22 2 -39 -5 -7 -4 -13 1 -13 5 0 9 -7 9 -15 0 -8 -4
-15 -9 -15 -5 0 -6 -6 -1 -12 12 -21 12 -38 0 -38 -8 0 -8 -3 -2 -8 6 -4 10
-14 10 -22 0 -8 -4 -18 -10 -22 -6 -5 -6 -8 1 -8 6 0 11 -7 11 -15 0 -8 -5
-15 -10 -15 -5 0 -4 -6 2 -14 8 -10 9 -16 1 -21 -7 -4 -7 -12 0 -26 8 -14 7
-19 -1 -19 -8 0 -7 -5 2 -17 12 -14 12 -15 1 -9 -11 7 -12 4 -3 -13 9 -16 9
-21 0 -21 -7 0 -8 -4 -2 -12 11 -15 11 -28 0 -45 -4 -6 -3 -14 3 -18 7 -4 7
-12 0 -26 -6 -10 -7 -19 -2 -19 5 0 9 -7 9 -15 0 -8 -4 -15 -9 -15 -5 0 -6 -6
-1 -12 11 -18 11 -31 0 -45 -6 -8 -6 -13 0 -13 5 0 10 -7 10 -15 0 -8 -5 -15
-11 -15 -7 0 -7 -3 -1 -8 6 -4 10 -14 10 -22 0 -8 -4 -18 -10 -22 -6 -5 -6 -8
1 -8 6 0 11 -7 11 -15 0 -8 -4 -15 -9 -15 -5 0 -6 -6 -1 -12 11 -19 13 -39 2
-32 -5 3 -9 -1 -9 -10 0 -11 -11 -14 -50 -11 -36 2 -48 0 -43 -8 4 -7 -1 -6
-11 2 -15 13 -19 13 -27 0 -5 -8 -9 -9 -9 -4 0 11 -81 12 -98 1 -6 -3 -14 -1
-18 5 -4 8 -9 7 -15 -2 -6 -10 -9 -11 -9 -2 0 13 -26 13 -47 0 -8 -5 -13 -3
-13 5 0 10 -2 10 -9 -1 -7 -11 -9 -11 -13 0 -4 12 -7 12 -21 0 -10 -7 -17 -9
-17 -4 0 10 -46 10 -56 0 -4 -3 -15 -2 -25 3 -12 7 -20 6 -25 -1 -4 -8 -9 -7
-15 2 -7 11 -9 11 -9 -1 0 -13 -2 -13 -9 -1 -8 12 -12 12 -25 2 -9 -8 -16 -9
-16 -4 0 5 -9 9 -20 10 -13 1 -18 -2 -14 -9 5 -7 2 -8 -6 -3 -16 10 -410 13
-416 3 -3 -4 -13 -2 -24 4 -14 9 -22 9 -33 0 -7 -7 -17 -9 -21 -5 -4 4 -68 8
-142 9 l-134 1 0 -374 c0 -380 0 -381 35 -373 38 8 45 8 45 -1 0 -6 6 -7 12
-3 18 11 48 12 54 2 3 -4 11 -5 17 -1 17 10 47 11 53 1 3 -5 12 -4 20 3 7 6
20 9 28 6 7 -3 19 0 26 6 10 9 11 9 6 0 -5 -9 3 -11 29 -8 27 4 34 2 29 -7 -6
-10 -5 -10 7 -2 17 14 69 15 69 2 0 -7 5 -7 13 -1 10 8 31 10 40 4 1 -1 29 -4
62 -6 33 -2 73 -9 88 -14 36 -14 40 -14 32 2 -4 6 -1 5 7 -4 7 -9 19 -14 26
-12 6 3 12 0 12 -6 0 -6 9 -11 20 -11 11 0 20 -4 20 -10 0 -5 6 -10 12 -10 14
0 111 -101 103 -108 -2 -3 3 -19 12 -36 32 -61 33 -64 20 -69 -9 -4 -9 -6 0
-6 7 -1 10 -8 6 -18 -5 -12 -3 -14 7 -8 9 6 11 4 5 -5 -11 -17 -12 -111 -1
-117 4 -3 2 -9 -5 -13 -10 -7 -10 -12 2 -26 8 -10 10 -15 4 -12 -6 4 -10 -25
-10 -78 0 -49 4 -84 10 -84 6 0 1 -7 -9 -15 -11 -8 -14 -15 -8 -15 7 0 11 -12
10 -28 -1 -15 2 -34 7 -41 5 -8 4 -12 -1 -8 -11 6 -11 -143 -1 -160 4 -6 1
-13 -5 -16 -10 -3 -9 -8 2 -22 8 -10 11 -16 5 -13 -6 4 -10 -25 -10 -78 0 -49
4 -84 10 -84 6 0 1 -7 -9 -15 -11 -8 -14 -15 -8 -15 7 0 11 -12 10 -28 -1 -15
2 -34 7 -41 5 -8 4 -12 -1 -8 -11 6 -11 -143 -1 -160 4 -6 1 -13 -5 -16 -10
-3 -9 -8 2 -22 8 -10 10 -16 5 -13 -6 4 -10 -14 -10 -48 0 -30 4 -54 8 -54 5
0 5 -5 2 -10 -4 -6 -12 -7 -18 -3 -7 4 -6 0 2 -10 7 -9 11 -25 8 -36 -2 -10 0
-26 6 -36 5 -10 6 -15 1 -12 -11 7 -10 -675 1 -693 5 -7 4 -11 -1 -7 -11 6
-11 -143 -1 -160 4 -6 1 -13 -5 -16 -10 -3 -9 -8 2 -22 8 -10 10 -16 4 -12
-12 7 -11 -64 2 -84 4 -7 3 -10 -2 -6 -10 6 -10 -145 0 -161 3 -6 2 -14 -4
-17 -8 -5 -7 -12 2 -23 7 -9 8 -13 2 -9 -12 7 -12 -52 0 -71 3 -6 2 -13 -4
-17 -7 -4 -6 -13 1 -27 6 -11 7 -18 2 -15 -10 6 -10 -144 0 -160 4 -6 1 -13
-5 -16 -10 -3 -9 -8 2 -22 8 -10 10 -16 5 -13 -12 7 -11 -124 1 -143 4 -7 3
-9 -3 -6 -6 4 -10 -9 -9 -33 1 -22 6 -40 11 -40 6 0 3 -4 -5 -10 -8 -5 -12
-12 -8 -15 3 -4 0 -21 -7 -40 -8 -18 -11 -35 -8 -39 4 -3 2 -6 -3 -6 -5 0 -18
-15 -28 -34 -10 -19 -31 -40 -47 -46 -16 -7 -29 -17 -29 -23 0 -6 -3 -8 -6 -4
-3 3 -18 1 -33 -5 -36 -14 -64 -18 -152 -22 -42 -1 -81 -6 -87 -10 -7 -4 -12
-4 -12 1 0 4 -79 8 -175 8 l-175 1 -6 -33 c-3 -18 -7 -44 -8 -58 0 -14 -4 -25
-7 -25 -3 0 -5 -16 -4 -35 1 -19 -2 -35 -5 -35 -6 0 -9 -16 -13 -87 0 -13 -4
-23 -7 -23 -4 0 -7 -12 -7 -27 -3 -53 -7 -73 -18 -73 -5 0 -3 -5 5 -10 8 -5
10 -10 4 -10 -7 0 -12 -12 -12 -27 0 -16 -3 -44 -8 -63 -4 -19 -7 -45 -8 -57
0 -13 -3 -23 -7 -23 -3 0 -5 -16 -4 -35 1 -19 -1 -35 -5 -35 -3 0 -7 -10 -8
-22 0 -13 -3 -34 -6 -48 -2 -14 -7 -43 -11 -65 l-7 -40 46 -2 c31 -1 44 2 40
9 -5 7 -2 8 7 3 18 -11 449 -14 455 -3 3 5 11 5 17 1 21 -13 141 -13 149 0 4
7 8 8 8 2 0 -7 114 -10 340 -10 258 0 341 -3 344 -12 3 -7 1 -15 -3 -17 -9 -6
-7 -49 4 -65 3 -6 1 -11 -6 -11 -7 0 -8 -4 -2 -12 11 -15 11 -28 0 -45 -4 -6
-3 -14 3 -18 7 -4 7 -12 0 -26 -6 -10 -7 -19 -2 -19 5 0 9 -7 9 -15 0 -8 -5
-15 -10 -15 -6 0 -6 -5 0 -12 11 -15 11 -28 0 -45 -5 -7 -4 -13 1 -13 5 0 9
-7 9 -15 0 -8 -5 -15 -11 -15 -7 0 -7 -3 -1 -8 13 -9 16 -42 3 -42 -5 0 -6 -6
-1 -12 12 -21 12 -38 0 -38 -8 0 -8 -3 -2 -8 14 -10 17 -32 4 -32 -8 0 -8 -4
-2 -12 11 -15 11 -28 0 -45 -5 -7 -4 -13 1 -13 5 0 9 -7 9 -15 0 -8 -4 -15 -9
-15 -5 0 -4 -9 2 -19 7 -14 7 -22 0 -26 -6 -4 -8 -11 -4 -16 10 -16 11 -69 1
-69 -4 0 -5 -6 0 -12 12 -21 12 -38 0 -38 -8 0 -8 -3 -2 -8 14 -10 17 -32 4
-32 -8 0 -8 -4 -2 -12 5 -7 8 -19 7 -25 -1 -7 -2 -17 -3 -23 -1 -7 -400 -10
-1176 -10 l-1175 0 0 -450 0 -450 3670 0 3670 0 0 450 0 450 -1518 0 -1517 0
1 437 c1 241 2 440 3 443 0 3 24 5 52 4 27 0 52 3 55 8 3 4 10 8 15 8 6 0 7
-5 3 -12 -5 -7 -3 -8 7 -2 8 4 32 9 54 10 105 5 124 8 119 16 -3 4 6 4 20 -2
14 -5 26 -6 26 -2 0 4 17 7 38 8 20 1 49 4 63 7 14 3 57 9 95 13 70 8 82 10
87 14 3 2 23 6 72 14 22 4 69 14 105 22 36 9 72 17 80 19 8 1 22 5 30 8 8 4
24 8 35 10 11 2 27 7 35 10 8 3 44 15 80 28 66 22 111 40 164 65 16 7 32 11
37 8 5 -3 9 -1 9 4 0 9 50 37 63 34 4 -1 7 2 7 7 0 5 9 12 20 16 34 11 130 72
123 79 -3 3 0 6 7 6 25 0 229 184 223 202 -2 4 6 10 17 13 11 4 18 10 16 14
-3 4 6 19 20 34 13 14 24 31 24 37 0 5 5 10 11 10 5 0 7 5 4 10 -3 6 -2 10 4
10 11 0 110 190 117 223 2 11 9 24 15 27 6 4 10 9 9 11 -2 5 10 59 17 79 4 8
7 17 7 20 1 3 5 11 10 19 6 10 5 12 -2 7 -6 -4 -5 5 3 20 8 15 12 31 9 36 -3
4 0 8 6 8 6 0 8 11 6 24 -2 13 -2 27 2 30 7 8 11 30 14 74 0 17 4 32 7 32 4 0
7 17 8 38 3 77 9 128 17 140 4 6 3 12 -2 12 -5 0 -6 16 -2 38 7 43 4 237 -4
251 -4 5 0 12 6 14 10 4 10 6 1 6 -9 1 -13 18 -13 49 0 26 -5 53 -12 60 -9 9
-9 12 1 12 7 0 9 5 4 13 -4 6 -9 23 -11 37 -1 14 -8 40 -13 58 -6 18 -12 40
-13 47 -1 8 -5 18 -9 21 -4 4 -7 13 -7 20 0 7 -5 25 -12 41 -6 15 -11 31 -10
36 1 4 -3 7 -8 7 -6 0 -10 9 -10 20 0 11 -5 20 -11 20 -5 0 -8 4 -5 9 3 5 -3
20 -14 34 -11 14 -20 32 -20 40 0 8 -7 17 -15 21 -8 3 -15 10 -15 16 0 6 -6
17 -12 24 -7 8 -20 24 -28 36 -28 42 -190 199 -190 183 0 -3 -8 3 -17 13 -10
11 -35 28 -55 39 -21 11 -38 23 -38 27 0 5 -5 8 -10 8 -6 0 -28 11 -49 24 -21
14 -42 22 -45 18 -4 -3 -11 0 -16 8 -5 7 -16 15 -26 16 -10 2 -28 8 -41 13
-40 19 -100 42 -118 46 -5 2 -34 11 -63 20 -29 10 -55 15 -59 12 -3 -3 -12 0
-19 8 -16 16 -19 29 -4 20 6 -3 10 -2 10 3 0 4 20 19 45 31 25 12 45 27 45 32
0 6 4 8 8 5 14 -9 212 163 212 184 0 5 9 12 21 15 11 4 18 9 15 12 -3 3 8 23
25 44 17 22 28 39 24 39 -4 0 2 8 12 18 20 17 86 155 86 179 0 7 5 13 10 13 6
0 8 3 5 6 -4 3 0 17 7 31 8 15 12 30 9 35 -3 4 -2 14 3 21 4 6 9 23 11 37 2
13 8 30 14 37 7 9 7 13 -1 13 -7 0 -9 5 -4 13 9 15 14 49 13 100 -1 28 3 37
11 31 8 -5 9 -3 4 6 -11 19 -13 60 -2 60 4 0 5 5 2 11 -12 18 -12 119 -1 119
7 0 6 3 -1 8 -7 4 -12 16 -12 27 0 37 -7 84 -14 91 -3 4 -2 15 4 25 7 13 6 19
-2 19 -6 0 -9 7 -5 15 3 8 1 15 -5 15 -6 0 -7 4 -4 10 7 11 -14 88 -29 109 -9
12 -8 13 3 6 9 -5 12 -4 8 2 -11 17 -30 67 -34 88 -2 11 -8 22 -13 23 -6 2
-10 10 -10 18 0 23 -99 194 -112 194 -4 0 -8 5 -8 10 0 28 -178 201 -248 240
-15 8 -35 23 -44 33 -10 11 -22 16 -29 11 -8 -4 -9 -3 -5 4 5 8 0 12 -13 12
-12 0 -21 4 -21 8 0 10 -80 48 -92 44 -5 -1 -8 2 -8 8 0 5 -9 10 -19 10 -11 0
-21 4 -23 10 -1 5 -12 11 -23 13 -11 2 -29 8 -40 14 -11 6 -23 12 -27 12 -14
3 -43 13 -63 22 -11 6 -30 11 -43 12 -12 0 -22 4 -22 7 0 3 -11 7 -26 8 -14 1
-33 6 -43 12 -11 5 -34 12 -52 14 -19 3 -49 9 -66 15 -18 5 -33 7 -33 4 0 -3
-8 1 -17 8 -15 12 -16 12 -8 -1 8 -13 6 -13 -7 -2 -9 8 -25 12 -36 10 -10 -2
-26 3 -35 11 -11 8 -17 9 -17 2 0 -7 -8 -8 -23 -2 -13 5 -39 10 -58 12 -19 2
-40 7 -46 12 -9 6 -13 5 -13 -3 0 -8 -4 -9 -12 -3 -13 9 -50 15 -115 16 -18 1
-33 5 -33 9 0 5 -9 4 -20 -2 -14 -7 -20 -7 -20 0 0 5 -3 9 -7 9 -5 -1 -13 -1
-18 0 -7 1 -10 193 -10 569 l0 567 -351 3 -350 2 1 -47 c0 -27 4 -54 8 -60 5
-7 4 -13 -1 -13 -11 0 -10 -90 1 -107 5 -7 4 -13 0 -13 -11 0 -10 -171 0 -187
5 -7 4 -13 -1 -13 -11 0 -10 -90 1 -107 5 -7 4 -13 0 -13 -11 0 -10 -171 0
-187 5 -7 4 -13 -1 -13 -11 0 -10 -90 1 -107 5 -7 4 -13 0 -13 -11 0 -10 -171
0 -187 5 -8 3 -13 -3 -13 -7 0 -10 -6 -7 -14 4 -9 -3 -16 -19 -19 -14 -2 -24
1 -24 7 0 7 -3 7 -8 1 -10 -14 -153 -15 -145 -1 5 8 3 8 -8 0 -16 -12 -29 -12
-46 -1 -6 4 -14 3 -17 -2 -3 -5 -35 -8 -72 -7 -36 1 -68 -2 -71 -6 -2 -5 -11
-4 -19 0 -9 5 -35 6 -60 2 -28 -4 -47 -3 -53 4 -5 6 -9 252 -9 546 0 294 -1
543 -1 553 -1 16 -25 17 -350 17 l-350 0 2 -40z m984 -1896 c46 0 79 4 76 9
-3 5 3 5 13 -1 20 -10 59 -10 70 1 4 3 16 1 28 -5 25 -14 26 -13 37 4 5 7 9 8
9 2 0 -7 28 -11 73 -12 101 -3 164 -9 178 -18 8 -4 10 -3 5 4 -5 9 0 9 20 2
15 -6 33 -9 40 -6 8 3 16 1 19 -5 4 -5 11 -7 16 -3 6 3 18 2 27 -2 15 -6 42
-11 110 -17 12 -1 22 -6 22 -10 0 -5 5 -5 10 -2 6 3 10 2 10 -3 0 -5 11 -8 25
-7 14 2 25 0 25 -4 0 -4 8 -7 18 -8 26 -2 46 -7 52 -14 7 -8 94 -39 101 -36 4
1 15 -5 25 -13 11 -8 35 -24 54 -35 19 -10 40 -24 47 -29 35 -30 43 -36 54
-36 7 0 10 -2 7 -5 -2 -3 18 -28 45 -57 27 -28 59 -73 71 -100 12 -27 25 -45
29 -42 3 4 5 -3 2 -14 -2 -12 0 -24 6 -27 5 -4 9 -17 9 -31 0 -13 4 -24 8 -24
5 0 9 -12 9 -27 1 -16 3 -65 6 -110 2 -46 2 -83 -2 -83 -3 0 -7 -17 -8 -38 -3
-59 -11 -96 -22 -100 -5 -2 -7 -10 -4 -18 3 -8 0 -14 -7 -14 -6 0 -9 -4 -5 -9
3 -5 -1 -16 -9 -24 -8 -8 -12 -17 -9 -21 4 -3 1 -6 -6 -6 -7 0 -10 -4 -7 -9 3
-4 -3 -16 -14 -26 -11 -10 -20 -21 -20 -26 0 -9 -69 -79 -79 -79 -3 0 -12 -9
-19 -20 -7 -12 -17 -18 -22 -15 -6 4 -13 -1 -16 -9 -3 -9 -10 -13 -15 -10 -5
3 -9 1 -9 -4 0 -9 -71 -48 -79 -43 -2 2 -7 -2 -11 -9 -4 -6 -13 -12 -21 -14
-8 -1 -24 -8 -36 -14 -13 -7 -23 -10 -23 -6 0 3 -6 2 -12 -3 -14 -11 -68 -27
-80 -25 -5 1 -8 -2 -8 -7 0 -6 -9 -8 -20 -6 -11 2 -20 1 -20 -3 0 -4 -8 -8
-17 -9 -10 -1 -31 -4 -48 -8 -16 -4 -40 -8 -52 -8 -13 -1 -23 -4 -23 -8 0 -3
-11 -5 -25 -4 -14 2 -25 0 -25 -4 0 -4 -18 -7 -41 -7 -22 1 -43 -2 -46 -7 -3
-5 -9 -3 -14 4 -5 8 -9 9 -9 3 0 -11 -13 -13 -110 -17 -25 -1 -48 -6 -52 -12
-5 -6 -8 -5 -8 3 0 9 -5 10 -19 2 -14 -7 -22 -7 -26 0 -4 6 -12 7 -18 3 -19
-12 -467 -10 -467 2 0 7 -3 7 -8 0 -9 -12 -32 -18 -33 -7 -6 32 -4 150 2 163
5 9 5 20 1 23 -11 12 -9 206 3 206 6 0 7 3 0 8 -12 9 -14 312 -2 312 4 0 5 5
1 12 -12 20 -12 208 0 208 7 0 8 3 1 8 -12 9 -15 252 -2 252 4 0 5 5 1 12 -10
16 -12 178 -3 184 4 2 44 5 88 6 51 1 81 5 81 12 0 8 3 8 8 1 4 -6 44 -11 89
-11z m-187 -2092 c0 7 5 6 13 -1 8 -6 17 -8 20 -4 10 9 547 10 547 1 0 -4 11
-3 25 2 14 5 25 6 25 1 0 -4 15 -8 33 -8 84 -1 143 -7 155 -16 7 -6 12 -6 12
0 0 5 10 9 23 7 12 -1 22 -3 22 -4 0 -3 41 -9 78 -12 20 -1 37 -5 37 -8 0 -3
20 -7 45 -8 25 -1 55 -7 66 -13 11 -6 27 -8 35 -5 8 3 14 1 14 -5 0 -6 7 -9
15 -5 8 3 15 1 15 -5 0 -6 4 -8 9 -4 6 3 36 -4 69 -15 33 -11 70 -23 83 -25
13 -3 25 -9 27 -15 2 -6 8 -8 13 -4 5 3 9 1 9 -5 0 -5 10 -8 21 -6 12 3 19 1
15 -2 -3 -4 16 -17 44 -30 27 -12 50 -27 50 -33 0 -5 3 -9 8 -8 14 3 61 -25
56 -33 -3 -5 1 -9 9 -9 7 0 23 -11 35 -25 12 -14 27 -25 34 -25 6 0 9 -2 6 -6
-3 -3 10 -21 28 -41 19 -20 34 -42 34 -49 0 -8 4 -14 8 -14 4 0 16 -13 25 -30
10 -16 16 -30 12 -30 -3 0 1 -10 10 -23 8 -13 12 -27 8 -30 -3 -4 0 -7 7 -7 7
0 11 -3 8 -6 -4 -3 -2 -20 3 -37 20 -67 26 -206 14 -287 -3 -19 -6 -41 -7 -47
-1 -7 -5 -13 -10 -13 -5 0 -6 -5 -3 -10 4 -6 2 -16 -3 -23 -6 -7 -10 -14 -10
-17 0 -20 -16 -60 -23 -60 -5 0 -8 -3 -7 -7 3 -11 -35 -73 -44 -73 -4 0 -8 -7
-8 -15 0 -8 -7 -15 -16 -15 -8 0 -13 -4 -10 -9 3 -5 -15 -26 -41 -47 -25 -22
-51 -44 -57 -49 -17 -16 -87 -59 -131 -80 -22 -11 -43 -24 -46 -28 -3 -5 -10
-9 -15 -9 -10 -1 -29 -6 -54 -16 -8 -3 -17 -6 -20 -7 -3 -1 -18 -7 -33 -13
-16 -7 -33 -10 -38 -6 -5 3 -9 0 -9 -6 0 -6 -6 -10 -12 -9 -7 1 -20 0 -28 -4
-8 -3 -26 -8 -40 -10 -24 -5 -41 -9 -92 -23 -13 -3 -40 -7 -60 -8 -21 0 -38
-4 -38 -8 0 -4 -12 -7 -27 -8 -67 -2 -83 -5 -83 -13 0 -5 -7 -4 -15 3 -9 7
-15 8 -15 2 0 -5 -10 -10 -22 -10 -13 1 -61 -3 -108 -7 -47 -4 -136 -8 -197
-9 -62 0 -113 -5 -113 -9 0 -5 -5 -5 -12 -1 -18 11 -98 11 -98 -1 0 -5 -5 -4
-12 3 -8 8 -15 9 -25 1 -7 -7 -13 -7 -13 -2 0 5 -9 9 -20 9 -11 0 -20 -4 -20
-9 0 -5 -6 -5 -12 1 -7 5 -22 6 -33 2 -11 -4 -28 -4 -37 1 -10 6 -19 5 -23 -1
-4 -6 -11 -7 -18 -3 -6 4 -40 7 -77 8 -36 1 -67 3 -70 4 -9 2 -6 221 3 221 4
0 5 5 1 12 -12 20 -12 208 0 208 7 0 8 3 1 8 -14 10 -14 245 -1 255 8 5 8 9 1
15 -6 4 -11 39 -11 77 0 39 5 73 11 77 7 5 7 8 0 8 -6 0 -10 31 -10 75 0 44 4
75 10 75 7 0 7 3 0 8 -6 4 -11 39 -11 77 0 39 5 73 11 77 7 5 7 8 0 8 -14 0
-14 242 0 252 6 5 6 8 -1 8 -12 0 -12 49 0 68 3 6 19 7 41 2 22 -5 35 -4 35 2z
m454 -2391 c4 -1 5 -8 2 -17 -4 -9 -1 -23 5 -30 6 -8 7 -14 2 -14 -5 0 -9 -37
-8 -82 1 -48 -3 -89 -9 -97 -9 -12 -8 -13 3 -7 10 7 12 2 6 -24 -5 -25 -4 -31
5 -25 9 6 11 4 5 -6 -12 -18 -13 -118 -3 -148 8 -21 7 -22 -7 -11 -13 11 -14
10 -9 -6 4 -10 12 -25 18 -33 8 -11 8 -13 0 -8 -14 8 -13 -85 1 -95 6 -5 6 -8
-1 -8 -6 0 -10 -19 -8 -47 1 -27 -3 -54 -10 -62 -9 -12 -8 -13 3 -7 10 7 12 2
6 -24 -5 -24 -4 -31 5 -25 9 6 9 3 2 -12 -6 -11 -7 -25 -2 -33 22 -36 -4 -40
-285 -40 l-272 0 0 428 c-1 235 1 429 2 432 3 4 512 5 549 1z"/>
</g>
</svg>
